<?xml version="1.0" encoding="utf-8"?>
<!-- Generator: Adobe Illustrator 26.0.3, SVG Export Plug-In . SVG Version: 6.00 Build 0)  -->
<svg version="1.1" id="Layer_1" xmlns="http://www.w3.org/2000/svg" xmlns:xlink="http://www.w3.org/1999/xlink" x="0px" y="0px"
	 viewBox="0 0 848.7 210.9" style="enable-background:new 0 0 848.7 210.9;" xml:space="preserve">
<style type="text/css">
	.st0{fill:#060948;}
</style>
<g>
	<g>
		<path class="st0" d="M790.6,161.2l0.1-0.2l-3.5-5.4h-0.1l-3,4.9l0,0.1L790.6,161.2z M783.3,142.5l-0.1,0.2l3.8,6.9h0.2l3.4-6.7
			l-0.1-0.2L783.3,142.5z M780.3,143.8l-0.1,0.1l0.5,15.8l0.1,0.1l4.2-7.4l0-0.2L780.3,143.8z M794.5,160.5l0-17.2l-0.1-0.1
			l-5.1,9.2l0,0.2l5,8.1L794.5,160.5z M770.2,99.2H770c0.1,2.8,0.3,7.6,0.3,7.6l2.2,3.9c0.8,1.3,6.7,29.2,6.7,29.2l7.4-3.7
			c-0.7-0.9-1.1-2.1-1.1-3.4c0-0.6,0.1-1.1,0.2-1.6c-0.3-0.1-2.1-0.3-2.4-0.8c-0.3-0.6-0.5-6.4,0.2-7.8c-0.1-0.2-0.3-0.5-0.5-0.9
			c-1-1.4-5.3-6.1-5.2-6.9c0-0.7,0.8-1.7,0.8-1.7L770.2,99.2z M732.1,183.1c-0.1-0.4-0.9-7.2-1-8.9c-7.9-0.7-11.6-1.4-12.6-2.6
			c-1.1-1.3,9-62.8,9.8-63.9c0.5-0.7,3-2.6,3.2-3.3c0.2-0.6,0.1-13.3,0-16.4h-0.4c-0.5,0-13.8,13.1-18.2,12.6
			c-3.1-0.3-6.5-2.2-8.2-3.2l6.9,109c7.5,2.3,15.3,3.8,23.4,4.4l2.3-3.7l0.1-5.9l-3.2-17C734.2,184.2,732.3,183.6,732.1,183.1z
			 M743.1,0c-15.7,0-30.5,3.4-43.9,9.5l3.9,61.3c1.6-0.2,2.9-0.2,3.1,0c0.5,0.7,2.5,5.5,2.7,6.4c0.1,0.5-0.1,1.1-0.5,1.7
			c1.9,0.5,5.2,1.5,5.3,1.5c0,0,9.5-12.8,12.2-14.4c0.7-0.4,8.3-3.8,11.4-5.2c0.3-0.4,0.5-0.7,0.6-1c0.1-1.2,0.8-6.8,1-8.2
			c0.1-1,2.2-2.9,2.7-4.4c0.4-1.5,0.3-8.8,0.5-9.5c0.3-1.1,6.4-5.2,8-6.2c0.9-0.6,7.9-0.3,8.8-0.1c3,0.6,5.6,3.3,5.6,4.3
			c0,1-0.3,10.9-0.3,10.9c0,0.9,3.4,6.4,3.4,8.1c0,1.7-0.4,5.6-0.4,6.5c0,0.2,0.2,0.8,0.5,1.5c2.2,1.3,10,6.1,11.3,6.9
			c1.6,1,6.5,23.6,6.5,23.6L792,106c0,0,1.9-0.5,2.3-0.2c0.5,0.4,1,15.1,1,15.1v0c0.8,1.7,3,5.9,3,7.3c0,1.6-1.6,2.9-3.3,3.9
			c0,0.3,0.1,0.6,0.1,0.9c0,1.4-0.5,2.7-1.3,3.6c2.4,1.2,6.4,3.2,6.4,3.5c0,0.9,0.1,1.7,0,22.9c0,0-2.6,2.1-2.8,2.1
			c-0.2,0-8.9-0.5-14.5-0.9c0.4,4.1,0.6,7.5,0.3,8.5c-2.5,1.2-9,1.9-13.4,2.2c-0.9,3.3-3.8,13.5-4.5,13.5c-0.9,0-1.8,0-1.8,0
			s-5.5,7.8-5.5,8.6c0,0.7,2,7.5,2,7.5l5.3,4.5c47.7-10.2,83.4-52.5,83.4-103.2C848.7,47.3,801.4,0,743.1,0z"/>
		<path class="st0" d="M694.2,90.3c-1.3-1.2-3.7-6.6-3.5-9.8c0.1-3,2.1-6.5,2.7-7.6c0.2-0.2,0.8-0.5,1.7-0.8l-3.8-59.2
			c-32.8,17.9-55,52.7-55,92.7c0,44.7,27.8,82.8,67.1,98.2l-7.1-112.5C695.5,91.1,694.7,90.8,694.2,90.3z"/>
	</g>
	<g>
		<path class="st0" d="M334.5,55.4c4.5,0,8,3.6,8,8c0,4.5-3.6,7.9-8,7.9c-4.5,0-7.9-3.4-7.9-7.9C326.6,58.9,330.1,55.4,334.5,55.4z"
			/>
		<path class="st0" d="M328.5,87c0-1.2,1-2.3,2.2-2.3h7.6c1.2,0,2.3,1,2.3,2.3v57.7h-9.9c-1.2,0-2.2-1-2.2-2.3L328.5,87L328.5,87z"
			/>
		<path class="st0" d="M440.2,55.4c4.5,0,8,3.6,8,8c0,4.5-3.6,7.9-8,7.9c-4.5,0-7.9-3.4-7.9-7.9C432.3,58.9,435.8,55.4,440.2,55.4z"
			/>
		<path class="st0" d="M434.2,87c0-1.2,1-2.3,2.3-2.3h7.6c1.2,0,2.3,1,2.3,2.3v57.7h-9.9c-1.2,0-2.3-1-2.3-2.3V87z"/>
		<path class="st0" d="M413.2,54.1h-7.6c-1.2,0-2.3,1-2.3,2.3v33.6c-5.4-4.5-11.9-6.5-18.4-6.5c-5.6,0-10.6,1.4-14.7,3.8
			c-9.1,5.4-15.4,15.4-15.4,27.4c0,12,6.2,21.9,15.3,27.3c4.1,2.4,9.7,4,15,4c7.1,0,13.6-2.4,18.5-6.8v3.2c0,1.2,1,2.3,2.3,2.3h9.5
			V56.4C415.5,55.1,414.4,54.1,413.2,54.1z M403.4,125.9c-4.1,5.5-10.3,8.6-16.5,8.6c-11.6,0-19.9-9.1-19.9-19.8
			c0-10.5,7.6-19.8,19.3-19.8c7.3,0,13.4,3.7,17.1,8.5V125.9z"/>
		<path class="st0" d="M518.9,84.7h-7.2c-1.2,0-2.3,1-2.3,2.3v3.2c-5.5-4.7-12-6.8-18.8-6.8c-5.6,0-10.6,1.4-14.7,3.8
			c-9,5.4-15.4,15.4-15.4,27.4c0,12,6.2,21.9,15.3,27.3c4.1,2.4,9.7,4,15,4c7.1,0,13.3-2.3,18.1-6.5v3.3c0,7.5-1.2,12.1-3.3,15.4
			c-2.9,4.5-8,6.9-14.5,6.9c-8.9,0-14.4-4.1-18.5-9.2c0,0,0,0,0,0c-0.8-0.7-2-0.6-2.8,0.1c-0.1,0.1-0.2,0.2-0.2,0.2l-7,6.5
			c3.8,6,13.6,13.9,29.2,13.9c11.9,0,21-5.5,25.9-14.8c2.4-4.7,3.6-10.7,3.6-19.6V87C521.1,85.7,520.1,84.7,518.9,84.7z M509,125.9
			c-4.1,5.5-10.3,8.6-16.5,8.6c-11.6,0-19.9-9.1-19.9-19.8c0-10.5,7.6-19.8,19.2-19.8c7.3,0,13.4,3.7,17.1,8.5V125.9z"/>
		<path class="st0" d="M183.6,114.7c0-17.7-12.1-31.2-28.8-31.2c-17,0-29.2,13.3-29.2,31.2s13.5,31.2,31,31.2
			c12.2,0,20.8-5.5,25.3-11.2c0,0-6.6-6.3-6.6-6.3c-0.8-0.5-1.7-0.4-2.4,0c-0.3,0.2-0.7,0.6-0.7,0.6c-3.3,3.3-7.9,6.3-15.4,6.3
			c-10.5,0-18.7-8-19.4-18.1h43.9c1.2,0,2.3-0.9,2.4-2C183.6,115.2,183.6,114.8,183.6,114.7L183.6,114.7z M138.3,107
			c2-7.8,9.1-13,16.8-13c7.1,0,14,5.4,15.8,13H138.3z"/>
		<path class="st0" d="M593.2,114.7c0-17.7-12.1-31.2-28.8-31.2c-17,0-29.2,13.3-29.2,31.2s13.5,31.2,31,31.2
			c12.2,0,20.8-5.5,25.2-11.2c0,0-6.6-6.3-6.6-6.3c-0.8-0.5-1.7-0.4-2.4,0c-0.3,0.2-0.7,0.6-0.7,0.6c-3.3,3.3-7.8,6.3-15.4,6.3
			c-10.5,0-18.8-8-19.4-18.1h43.9c1.2,0,2.3-0.9,2.4-2c0,0,0,0,0,0l0,0C593.2,115,593.2,114.8,593.2,114.7L593.2,114.7z M547.9,107
			c2-7.8,9-13,16.8-13c7.2,0,14,5.4,15.8,13H547.9z"/>
		<path class="st0" d="M105.2,55.4c4.5,0,8,3.6,8,8c0,4.5-3.6,7.9-8,7.9c-4.5,0-7.9-3.4-7.9-7.9C97.3,58.9,100.8,55.4,105.2,55.4z"
			/>
		<path class="st0" d="M111.3,149.8c0,8-1.1,13-3.8,16.8c-4.3,6.3-11.5,10-19.6,10c-2.6,0-5.5-0.4-7.1-0.9l2-8.9
			c0.3-1.2,1.5-2,2.7-1.8l2.2,0.1c3.4,0,7.1-1.5,9.2-4.2c1.7-2.2,2.3-5.2,2.3-10.7v-2.3V87c0-1.2,1-2.3,2.3-2.3h7.6
			c1.2,0,2.3,1,2.3,2.3v60.5L111.3,149.8L111.3,149.8z"/>
		<path class="st0" d="M249.7,94c-5.1-6.5-13-10.6-21.8-10.6c-8.7,0-14.8,3.9-18,7V87c0-1.2-1-2.3-2.2-2.3h-7.2
			c-1.2,0-2.3,1-2.3,2.3v55.4c0,1.2,1,2.3,2.3,2.3h7.6c1.2,0,2.3-1,2.3-2.3v-38.9c3.6-4.3,9.3-8.5,17.2-8.5c5,0,9.6,2.3,12.4,5.9
			c2.2,2.7,3.6,6.2,3.6,13.9l0.1,2.2v25.5c0,1.2,1,2.3,2.3,2.3h7.6h2.2v-29.3C255.6,105,253.5,98.9,249.7,94z"/>
		<path class="st0" d="M303.9,97.5C303.9,97.5,303.9,97.5,303.9,97.5C303.9,97.5,303.9,97.5,303.9,97.5L303.9,97.5z"/>
		<path class="st0" d="M273,130.4L273,130.4L273,130.4C273.1,130.4,273.1,130.4,273,130.4z"/>
		<path class="st0" d="M268,137.6c6.6,5.4,14.7,8.3,24.2,8.3c11.7,0,22.3-7,22.3-18.4c0-12.4-12.4-16.6-21.8-19
			c-6-1.5-10.7-2.9-10.7-7c0-4.7,5-7.5,10.9-7.5c4.1,0,7.7,1.4,11,3.5c0,0,0,0,0,0c1.1,0.6,2.5,0.3,3.2-0.7l3.2-4.4l0.2-0.3
			c0.9-1.2,0.8-2.3-0.1-3.2l-0.3-0.3c-4.5-3.1-10.4-5.2-18-5.2c-10.7,0-22.2,5.9-22.2,18.7c0,8.4,6.5,13,13.8,15.4
			c8.8,2.9,18.8,3.3,18.8,10.2c0,4.7-5.2,7.5-10.5,7.5c-5.3,0-10.7-1.8-15.8-5.2l0,0c-0.9-0.7-2.3-0.6-3.1,0.3L268,137.6z"/>
		<path class="st0" d="M81,92.7c0-1.2-1-2.3-2.3-2.3l-36,0v10c0.1,1.2,1.1,2.1,2.2,2.1l23.3,0v23c-4.7,4.7-12.5,8.3-21.9,8.3
			c-19,0-33.5-13.7-33.5-33.8c0-19.3,14.2-33.8,32.4-33.8c8.7,0,17.1,3.6,22.5,8.5h0c0,0,0,0,0,0c0.8,0.8,2.1,0.8,3,0.1
			c0.1,0,0.1-0.1,0.1-0.1h-0.1l5.4-5.3l0,0v0c0,0,0-0.1,0.1-0.1c0.7-0.8,0.8-1.9,0.2-2.8c-0.1-0.1-0.1-0.2-0.2-0.3l0,0l0,0
			c0,0,0,0,0-0.1v0c-7.8-7.6-19.1-12.2-31.1-12.2C19.4,54.1,0,74.2,0,100c0,26.4,19.6,45.9,46.3,45.9c13.8,0,27-6.9,34.7-16.6
			L81,92.7L81,92.7z"/>
	</g>
</g>
</svg>
